<svg width="16" height="22" viewBox="0 0 16 22" fill="none" xmlns="http://www.w3.org/2000/svg">
<path d="M7.99997 22C6.49712 21.9999 5.02898 21.5483 3.78588 20.7037C2.54278 19.8592 1.58207 18.6606 1.02832 17.2635C0.474563 15.8664 0.353301 14.3352 0.680255 12.8683C1.00721 11.4015 1.7673 10.0667 2.86197 9.037C4.20397 7.774 7.49997 5.5 6.99997 0.5C13 4.5 16 8.5 9.99997 14.5C11 14.5 12.5 14.5 15 12.03C15.27 12.803 15.5 13.634 15.5 14.5C15.5 16.4891 14.7098 18.3968 13.3033 19.8033C11.8968 21.2098 9.9891 22 7.99997 22Z" fill="#FFA857"/>
</svg>
