<svg width="23" height="23" viewBox="0 0 23 23" fill="none" xmlns="http://www.w3.org/2000/svg">
<path fill-rule="evenodd" clip-rule="evenodd" d="M0.996016 0.498108C0.445932 0.498108 0 0.94404 0 1.49412C0 2.04421 0.445932 2.49014 0.996016 2.49014H4.71696C5.04177 2.49014 5.32355 2.71443 5.39641 3.03096L8.00197 14.3512C8.28299 15.5721 9.36986 16.4372 10.6227 16.4372H21.3554C21.9054 16.4372 22.3514 15.9913 22.3514 15.4412C22.3514 14.8911 21.9054 14.4452 21.3554 14.4452H10.6227C10.2979 14.4452 10.0161 14.2209 9.94325 13.9044L7.33768 2.58414C7.05667 1.36323 5.96979 0.498108 4.71696 0.498108H0.996016ZM10.2774 4.10911H22.1556C22.6839 4.10911 23.0826 4.60388 22.9862 5.13988L21.9981 10.6335C21.9318 11.0018 21.6448 11.2853 21.2853 11.3376L11.8197 12.7128C11.3807 12.7766 10.9686 12.4794 10.8758 12.0321L9.45127 5.16322C9.33875 4.62064 9.73962 4.10911 10.2774 4.10911ZM13.0342 20.3226C13.0342 21.5262 12.0886 22.5019 10.9222 22.5019C9.75583 22.5019 8.81027 21.5262 8.81027 20.3226C8.81027 19.1191 9.75583 18.1434 10.9222 18.1434C12.0886 18.1434 13.0342 19.1191 13.0342 20.3226ZM20.8907 20.3226C20.8907 21.5262 19.9452 22.5019 18.7787 22.5019C17.6123 22.5019 16.6668 21.5262 16.6668 20.3226C16.6668 19.1191 17.6123 18.1434 18.7787 18.1434C19.9452 18.1434 20.8907 19.1191 20.8907 20.3226Z" fill="white"/>
</svg>
