<svg width="28" height="25" viewBox="0 0 28 25" fill="none" xmlns="http://www.w3.org/2000/svg">
<path fill-rule="evenodd" clip-rule="evenodd" d="M1.49724 0C0.947152 0 0.501221 0.445932 0.501221 0.996016C0.501221 1.5461 0.947152 1.99203 1.49724 1.99203H6.14918C6.47205 1.99203 6.75268 2.21371 6.82744 2.5278L10.0013 15.8618C10.2897 17.0733 11.3721 17.9283 12.6175 17.9283H25.5548C26.1049 17.9283 26.5508 17.4824 26.5508 16.9323C26.5508 16.3822 26.1049 15.9363 25.5548 15.9363H12.6175C12.2946 15.9363 12.014 15.7146 11.9392 15.4005L8.76533 2.06652C8.47696 0.855025 7.39453 0 6.14918 0H1.49724ZM12.4643 3.98405H26.5002C27.1245 3.98405 27.5956 4.54939 27.4817 5.16183L26.314 11.4389C26.2357 11.8598 25.8966 12.1837 25.4717 12.2434L14.2867 13.8149C13.768 13.8877 13.281 13.5481 13.1714 13.037L11.4881 5.18849C11.3552 4.56853 11.8289 3.98405 12.4643 3.98405ZM15.7219 22.51C15.7219 23.8852 14.6046 25 13.2263 25C11.848 25 10.7307 23.8852 10.7307 22.51C10.7307 21.1347 11.848 20.0199 13.2263 20.0199C14.6046 20.0199 15.7219 21.1347 15.7219 22.51ZM25.0055 22.51C25.0055 23.8852 23.8882 25 22.5099 25C21.1316 25 20.0143 23.8852 20.0143 22.51C20.0143 21.1347 21.1316 20.0199 22.5099 20.0199C23.8882 20.0199 25.0055 21.1347 25.0055 22.51Z" fill="white"/>
</svg>
